<svg width="200" height="27" viewBox="0 0 200 27" fill="none" xmlns="http://www.w3.org/2000/svg">
<g clip-path="url(#clip0_59_494)">
<path d="M18.4621 9.4456C17.1194 8.76278 14.9933 7.89374 12.2456 7.89374C7.68401 7.89374 4.81138 11.1555 4.81138 15.1282C4.81138 19.101 7.65279 22.3628 12.0895 22.3628C14.9962 22.3628 17.2131 21.5248 18.6182 20.8109V25.252C17.4628 25.8728 14.8997 26.7418 11.746 26.7418C4.96749 26.7418 0 21.6799 0 15.1282C0 8.57655 4.96749 3.51465 11.9021 3.51465C15.0586 3.51465 17.3067 4.44577 18.4621 5.06651V9.4456Z" fill="#F2ECE7"/>
<path d="M20.0547 26.3072V3.9519H24.8661V26.3101H20.0547V26.3072Z" fill="#F2ECE7"/>
<path d="M36.9242 26.6487H36.7369L25.6467 3.9519H30.8952L33.8303 10.4105C34.9855 12.9866 36.0159 15.1931 36.7966 17.3657C37.4523 15.7828 38.8261 12.6141 39.8282 10.4105L42.7632 3.9519H47.9805L36.9215 26.6515L36.9242 26.6487Z" fill="#F2ECE7"/>
<path d="M48.7922 26.3072V3.9519H53.6037V26.3101H48.7922V26.3072Z" fill="#F2ECE7"/>
<path d="M119.649 26.6486L107.309 14.8797L105.842 13.6072V26.3072H101.124V3.61035H101.311L113.62 15.3792L115.056 16.6517V3.95177H119.805V26.6513H119.649V26.6486Z" fill="#F2ECE7"/>
<path d="M140.214 26.6486L127.875 14.8797L126.407 13.6072V26.3072H121.69V3.61035H121.877L134.185 15.3792L135.621 16.6517V3.95177H140.37V26.6513H140.214V26.6486Z" fill="#F2ECE7"/>
<path d="M142.343 26.3072V3.9519H156.806V7.95855H147.152V13.0515H155.335V16.9029H147.152V22.3062H157.274V26.3128H142.343V26.3072Z" fill="#F2ECE7"/>
<path d="M176.035 9.4456C174.69 8.76278 172.568 7.89374 169.817 7.89374C165.256 7.89374 162.383 11.1555 162.383 15.1282C162.383 19.101 165.225 22.3628 169.661 22.3628C172.568 22.3628 174.786 21.5248 176.19 20.8109V25.252C175.035 25.8728 172.471 26.7418 169.318 26.7418C162.539 26.7418 157.572 21.6799 157.572 15.1282C157.572 8.57655 162.539 3.51465 169.474 3.51465C172.63 3.51465 174.879 4.44577 176.035 5.06651V9.4456Z" fill="#F2ECE7"/>
<path d="M189.151 7.95586V26.3073H184.339V7.95586H178.061V3.94922H195.46V7.95586H189.151Z" fill="#F2ECE7"/>
<path d="M87.9703 3.46094C83.6471 3.46094 79.6789 5.80567 77.6095 9.58093L72.7528 18.4463C71.5519 20.619 69.2555 21.9706 66.7633 21.9706C62.9966 21.9706 59.9308 18.9259 59.9308 15.1818C59.9308 11.4375 62.9966 8.39023 66.7633 8.39023C69.1931 8.39023 71.4583 9.69097 72.6761 11.7846L72.8152 12.0244L72.9486 11.7789L75.3812 7.3406L75.4351 7.24185L75.3585 7.16002C73.1074 4.77579 70.0533 3.46376 66.7633 3.46376C60.2602 3.46376 54.972 8.72035 54.972 15.1846C54.972 21.6488 60.2602 26.9054 66.7633 26.9054C71.2709 26.9054 75.3983 24.3321 77.3682 20.317C79.3382 24.3294 83.4626 26.9054 87.9732 26.9054C94.4763 26.9054 99.7645 21.6488 99.7645 15.1846C99.7645 8.72035 94.4763 3.46376 87.9732 3.46376L87.9703 3.46094ZM94.8028 15.1818C94.8028 18.9259 91.737 21.9706 87.9703 21.9706C84.2035 21.9706 81.1407 18.9259 81.1407 15.1818C81.1407 11.4375 84.2035 8.39023 87.9703 8.39023C91.737 8.39023 94.8028 11.4375 94.8028 15.1818Z" fill="#FBAD18"/>
<path d="M196.721 0.292265V2.38869H196.478V0.292265H195.768V0.0891113H197.438V0.295087H196.721V0.292265Z" fill="#F2ECE7"/>
<path d="M198.235 0.791634L198.17 0.701344C198.173 0.774705 198.173 0.845246 198.173 0.915785V2.38865H197.934V0.0495605H197.936L198.967 1.39263L199.997 0.0495605H200V2.39147H199.761V0.915785C199.761 0.845246 199.761 0.774705 199.765 0.701344C199.734 0.752134 199.68 0.81985 199.64 0.879104L198.967 1.74533L198.235 0.788814V0.791634Z" fill="#F2ECE7"/>
</g>
<defs>
<clipPath id="clip0_59_494">
<rect width="200" height="27" fill="white"/>
</clipPath>
</defs>
</svg>
