<svg width="64" height="64" viewBox="0 0 64 64" fill="none" xmlns="http://www.w3.org/2000/svg">
<g filter="url(#filter0_d_44_447)">
<circle cx="30" cy="30" r="24" fill="#2C715C"/>
</g>
<path d="M44.8332 20.4922C46.5292 18.3563 47.1548 16.3353 47.1548 13.2335L46.7026 12.8051L46.1879 12.3999C46.1879 18.1496 42.2635 22.874 37.3949 23.1066C36.8434 22.7985 36.2251 22.5906 35.5646 22.5063C35.2431 20.2201 33.1827 18.4493 30.6897 18.4493C29.1554 18.4493 27.7436 19.1331 26.8235 20.2475C25.9217 19.1552 24.5232 18.4493 22.9517 18.4493C20.2364 18.4493 18.0276 20.5483 18.0276 23.1287C18.0276 24.1589 18.3835 25.1335 19.0138 25.9304C16.8395 26.4157 15.2138 28.2701 15.2138 30.4821C15.2138 31.9475 15.9271 33.2564 17.0399 34.1147C15.1568 34.7725 13.8069 36.4892 13.8069 38.504C13.8069 39.3009 14.0186 40.0643 14.4182 40.7515C13.197 41.6038 12.4 42.9736 12.4 44.5205C12.4 47.1008 14.6088 49.1999 17.3241 49.1999C19.0863 49.1999 20.6303 48.3128 21.5012 46.9872C22.3313 47.5501 23.3316 47.8629 24.3593 47.8629C26.3311 47.8629 28.0306 46.7532 28.8164 45.1595C29.5859 45.6121 30.4716 45.8574 31.3931 45.8574C33.5829 45.8574 35.4422 44.491 36.0795 42.6086C36.7963 42.9809 37.5996 43.1835 38.4276 43.1835C41.1429 43.1835 43.3517 41.0844 43.3517 38.504C43.3517 37.4879 43.0049 36.5487 42.4239 35.7806C43.8463 34.9376 44.7586 33.4469 44.7586 31.8191C44.7586 29.2387 42.573 27.1243 39.8345 27.145V27.1397C39.8345 26.0627 39.4462 25.0727 38.8004 24.2812C40.5084 23.9483 42.0743 23.1481 43.3989 21.9969C43.861 26.3802 47.7638 29.8136 52.4966 29.8136H53.2V29.1451C53.2 24.6027 49.5125 20.8692 44.8332 20.4922ZM38.3671 27.75L38.365 27.756C38.3523 27.8215 38.3277 27.883 38.3108 27.9472C38.2806 28.0615 38.2503 28.1758 38.2088 28.2848C38.1751 28.373 38.1314 28.4566 38.0899 28.5408C38.0505 28.621 38.0111 28.7006 37.9654 28.7775C37.9134 28.8644 37.8564 28.9486 37.7966 29.0308C37.7488 29.0963 37.6981 29.1598 37.6454 29.222C37.5778 29.3016 37.5096 29.3804 37.4343 29.454C37.3738 29.5135 37.3084 29.567 37.2437 29.6218C37.1677 29.6866 37.0939 29.7535 37.0123 29.8116C36.8659 29.9152 36.7133 30.0102 36.5508 30.0917C36.5065 30.1144 36.4572 30.1292 36.4122 30.1499C36.275 30.2114 36.1351 30.2682 35.9887 30.313C35.9346 30.3297 35.8783 30.3411 35.8234 30.3551C35.6497 30.3992 35.4745 30.4387 35.2909 30.4574C35.2733 30.448 35.255 30.4413 35.2374 30.432C34.8991 30.2481 34.5361 30.1017 34.1534 29.9975C34.1021 29.9834 34.05 29.9721 33.998 29.9594C33.8545 29.9253 33.7082 29.8972 33.5597 29.8751C33.5056 29.8671 33.4514 29.8577 33.3965 29.8511C33.2052 29.829 33.011 29.8143 32.8141 29.8136C32.8106 29.8136 32.807 29.813 32.8035 29.813C32.4813 29.5837 32.2091 29.3069 31.9903 28.9981L31.9453 28.9312C31.6674 28.5181 31.493 28.0615 31.4269 27.5742L31.4149 27.496C31.4015 27.379 31.3931 27.26 31.3931 27.1397C31.3931 25.2966 32.9709 23.7972 34.9103 23.7972C36.8498 23.7972 38.4276 25.2966 38.4276 27.1397C38.4276 27.3482 38.4058 27.5521 38.3671 27.75ZM35.8691 36.1021C35.8058 36.2124 35.7334 36.3174 35.6574 36.4197C35.6335 36.4518 35.6103 36.4845 35.585 36.5166C35.5174 36.6015 35.4429 36.6817 35.3662 36.7599C35.3268 36.8 35.2888 36.8415 35.2473 36.8796C35.1763 36.9458 35.1003 37.0059 35.0236 37.0668C34.9715 37.1075 34.9202 37.1497 34.8653 37.1878C34.7901 37.2406 34.7092 37.2867 34.629 37.3342C34.5671 37.3703 34.5066 37.4084 34.4426 37.4405C34.4236 37.4498 34.4025 37.4572 34.3835 37.4659C34.3729 37.4585 34.361 37.4532 34.3504 37.4458C33.9537 37.161 33.5119 36.9331 33.035 36.772C33.004 36.7613 32.9745 36.7499 32.9435 36.7399C32.7205 36.6697 32.4912 36.6149 32.2555 36.5748C32.2112 36.5674 32.1669 36.5614 32.1219 36.5554C31.8841 36.5219 31.6414 36.4986 31.3931 36.4986C31.1356 36.4986 30.8789 36.5179 30.6256 36.556C30.6292 36.534 30.6278 36.5119 30.6313 36.4899C30.6657 36.2713 30.6897 36.0513 30.6897 35.8301C30.6897 35.6476 30.6756 35.4684 30.6545 35.2913C30.6475 35.2311 30.6355 35.1716 30.6256 35.1114C30.6067 34.9944 30.5841 34.8788 30.556 34.7645C30.5398 34.6976 30.5215 34.6308 30.5018 34.5646C30.4688 34.4516 30.4301 34.342 30.3879 34.2324C30.3661 34.1762 30.3464 34.1187 30.3225 34.0632C30.2521 33.8995 30.174 33.7404 30.0854 33.5866L30.0833 33.5826C30.1199 33.5572 30.1508 33.5244 30.1867 33.4977C30.34 33.3847 30.4871 33.2671 30.6235 33.1394C30.6573 33.1073 30.6882 33.0732 30.7213 33.0404C30.8627 32.9001 30.9957 32.7537 31.1166 32.5986C31.1378 32.5712 31.1575 32.5437 31.1779 32.5163C31.3059 32.3459 31.4205 32.1681 31.5232 31.9822C31.5331 31.9642 31.5436 31.9454 31.5535 31.9274C31.6625 31.7228 31.7568 31.5123 31.8335 31.293C31.8342 31.2903 31.8356 31.2883 31.837 31.2856C32.1592 31.1961 32.4813 31.1506 32.8 31.1506C33.016 31.1506 33.2249 31.1753 33.4303 31.2114C33.4915 31.2221 33.552 31.2362 33.6125 31.2495C33.7637 31.2836 33.9115 31.3278 34.0543 31.3799C34.1077 31.3993 34.1626 31.416 34.2153 31.4381C34.406 31.5183 34.5903 31.6105 34.7612 31.7202L34.7661 31.7235C34.9209 31.8231 35.0609 31.9408 35.1974 32.0618C35.3289 32.1794 35.445 32.3084 35.5554 32.4415C35.5913 32.4849 35.6321 32.523 35.6651 32.5685C35.7819 32.7256 35.8797 32.8934 35.9669 33.0658C35.9817 33.0959 36.0028 33.1227 36.0169 33.1527C36.1076 33.3479 36.1751 33.5512 36.2251 33.7597C36.2286 33.7744 36.2356 33.7878 36.2392 33.8025C36.287 34.0164 36.3102 34.2364 36.3123 34.4576L36.2975 34.6923C36.2673 35.1756 36.1259 35.6355 35.898 36.048C35.8895 36.066 35.8797 36.0841 35.8691 36.1021ZM26.0708 38.8015C25.9224 38.7487 25.7711 38.7032 25.6164 38.6645C25.5749 38.6538 25.5341 38.6437 25.4919 38.6344C25.3484 38.6023 25.2028 38.5769 25.055 38.5568C25.0107 38.5508 24.9678 38.5428 24.9235 38.5375C24.7378 38.5174 24.55 38.504 24.3586 38.504C24.1581 38.504 23.9499 38.5181 23.729 38.5475C23.7044 38.5308 23.6798 38.5141 23.6552 38.4967C23.6552 38.3449 23.6467 38.1938 23.6306 38.0441C23.62 37.9432 23.6017 37.8442 23.5841 37.7446C23.5757 37.6978 23.5715 37.6504 23.5616 37.6042C23.5363 37.4812 23.5032 37.3609 23.4681 37.2412C23.4617 37.2199 23.4575 37.1978 23.4505 37.1764C23.4111 37.0494 23.3639 36.9257 23.314 36.8034C23.3084 36.7893 23.3035 36.7746 23.2978 36.7606C23.2458 36.6383 23.1874 36.5193 23.1248 36.4023C23.117 36.3876 23.11 36.3729 23.1023 36.3582C23.0411 36.2452 22.9735 36.1362 22.9025 36.0293C22.8898 36.0099 22.8786 35.9898 22.8652 35.9711C22.7963 35.8695 22.7217 35.7726 22.645 35.6763C22.626 35.6529 22.6084 35.6288 22.5894 35.6054C22.5135 35.5145 22.4333 35.4276 22.3503 35.3421C22.3327 35.324 22.3172 35.304 22.2989 35.2859C22.3404 35.0452 22.4101 34.8099 22.5064 34.5826C22.702 34.4804 22.887 34.362 23.0657 34.2357C23.0819 34.2243 23.098 34.213 23.1142 34.2016C23.4681 33.9456 23.7832 33.6461 24.0526 33.3098C24.0653 33.2945 24.0772 33.2791 24.0892 33.263C24.22 33.0959 24.3424 32.9221 24.4494 32.7389C24.4662 32.7323 24.4824 32.7256 24.4993 32.7189C24.6829 32.6507 24.87 32.5966 25.06 32.5591C25.0916 32.5531 25.124 32.5491 25.1563 32.5438C25.3568 32.5097 25.5594 32.4876 25.7655 32.4876C25.9892 32.4876 26.2066 32.5123 26.419 32.5504C26.4465 32.5551 26.4746 32.5585 26.5013 32.5638C26.7025 32.6046 26.8974 32.6641 27.0845 32.7363C27.1161 32.7483 27.1471 32.761 27.178 32.7737C27.3616 32.8506 27.5382 32.9408 27.7042 33.0451C27.7295 33.0612 27.7542 33.0799 27.7795 33.0966C27.9279 33.1955 28.0672 33.3058 28.1973 33.4248C28.2206 33.4462 28.2452 33.4643 28.2677 33.4863C28.3908 33.6053 28.4991 33.737 28.6025 33.872C28.6595 33.9462 28.7102 34.0238 28.7601 34.1013C28.8241 34.2009 28.8832 34.3032 28.936 34.4095C28.9718 34.481 29.0063 34.5532 29.0366 34.6274C29.0886 34.7551 29.1301 34.8868 29.1653 35.0212C29.1822 35.084 29.2026 35.1455 29.2152 35.209C29.2567 35.4109 29.2828 35.6175 29.2828 35.8301C29.2828 36.0313 29.2581 36.2325 29.2166 36.4324C29.1976 36.5233 29.1625 36.6135 29.135 36.7038C29.097 36.8288 29.0654 36.9538 29.0112 37.0775C28.2093 37.4966 27.5537 38.1317 27.1035 38.9058C26.9536 38.9673 26.8101 39.0168 26.6723 39.0549C26.5034 38.9693 26.3276 38.8951 26.1482 38.8282C26.1229 38.8189 26.0968 38.8109 26.0708 38.8015ZM25.0621 30.4821C25.0621 30.2742 25.0431 30.071 25.0149 29.8704C25.0086 29.8263 25.0016 29.7829 24.9938 29.7394C24.9615 29.5476 24.9193 29.3597 24.863 29.1759C24.8602 29.1665 24.8581 29.1572 24.8553 29.1478C24.7919 28.9453 24.7125 28.7494 24.6217 28.5589C24.6083 28.5315 24.5936 28.5047 24.5802 28.4766C24.4958 28.3082 24.4015 28.1451 24.2974 27.988C24.2869 27.9719 24.2791 27.9532 24.2679 27.9372C24.3706 27.7975 24.4874 27.6617 24.6168 27.5321C24.6555 27.5187 24.6921 27.5013 24.7307 27.4866C24.8123 27.4565 24.8932 27.4244 24.9734 27.3903C25.0382 27.3623 25.1022 27.3329 25.1662 27.3021C25.2464 27.264 25.3245 27.2239 25.4018 27.1811C25.4637 27.1477 25.5242 27.1122 25.584 27.0755C25.6572 27.0314 25.7296 26.9852 25.8 26.9378C25.8619 26.8957 25.9224 26.8522 25.9829 26.8081C26.0462 26.7606 26.1081 26.7125 26.1686 26.663C26.1995 26.6376 26.2333 26.6149 26.2636 26.5888C26.7236 26.4698 27.1851 26.4538 27.6297 26.5086C27.776 26.5266 27.9216 26.5514 28.063 26.5868C28.1171 26.6002 28.1706 26.6156 28.2234 26.6309C28.3802 26.6777 28.5336 26.7339 28.682 26.8014C28.7094 26.8134 28.7376 26.8248 28.7643 26.8375C29.1357 27.018 29.4755 27.2607 29.7646 27.5608L29.8089 27.6069C29.8941 27.6999 29.9799 27.7928 30.0537 27.8957C30.0643 27.9579 30.0812 28.0181 30.0945 28.0789C30.122 28.2072 30.1543 28.3336 30.193 28.4579C30.2247 28.5609 30.257 28.6638 30.2964 28.7648C30.3274 28.8436 30.3633 28.9199 30.3984 28.9967C30.4336 29.0736 30.4702 29.1491 30.5096 29.2247C30.5518 29.3049 30.5954 29.3838 30.6418 29.4613C30.6524 29.4787 30.6608 29.4974 30.6721 29.5148C30.6826 29.6137 30.6897 29.7134 30.6897 29.8136C30.6897 30.0382 30.6608 30.2582 30.6158 30.4728L30.5806 30.6091C30.4012 31.3037 29.9932 31.9154 29.4312 32.3666C29.4129 32.3813 29.3939 32.3953 29.3756 32.4101C29.3292 32.4455 29.2736 32.4709 29.2251 32.5043C29.1182 32.404 29.007 32.3071 28.8909 32.2162C28.7735 32.1239 28.6511 32.0377 28.5258 31.9568C28.523 31.9548 28.5202 31.9528 28.5174 31.9508C28.1214 31.6954 27.6895 31.4982 27.2336 31.3632L27.2287 31.3612C27.0922 31.3211 26.9536 31.2883 26.813 31.2596C26.7926 31.2556 26.7736 31.2495 26.7532 31.2455C26.6244 31.2208 26.4936 31.2041 26.3627 31.1887C26.3297 31.1847 26.2973 31.178 26.2643 31.1747C26.0997 31.1586 25.9329 31.1506 25.7655 31.1506C25.5355 31.1506 25.3083 31.1713 25.0839 31.2008C25.0571 31.2041 25.029 31.2028 25.0023 31.2068C25.0058 31.1847 25.0044 31.1626 25.0079 31.1406C25.0396 30.9253 25.0621 30.7061 25.0621 30.4821ZM27.5882 21.5544C28.1966 20.4721 29.3855 19.7862 30.6897 19.7862C32.4089 19.7862 33.8439 20.9648 34.1478 22.5164C34.1225 22.5204 34.0986 22.5291 34.0732 22.5331C33.8552 22.5685 33.6399 22.614 33.4331 22.6761C33.4197 22.6801 33.4064 22.6862 33.393 22.6902C33.1968 22.751 33.0075 22.8252 32.8225 22.9081C32.7768 22.9282 32.7318 22.9489 32.6867 22.9703C32.4961 23.0625 32.3111 23.1635 32.1352 23.2771C32.1155 23.2898 32.098 23.3045 32.0783 23.3172C31.9193 23.4235 31.7687 23.5398 31.6245 23.6635C31.588 23.6942 31.5521 23.725 31.5162 23.7571C31.3636 23.8955 31.2187 24.0419 31.085 24.1976C31.0653 24.2204 31.0484 24.2451 31.0294 24.2685C30.9134 24.4102 30.8064 24.5579 30.7079 24.7117C30.6833 24.7498 30.658 24.7872 30.6348 24.8267C30.5293 25.0018 30.435 25.183 30.3534 25.3708C30.3393 25.4043 30.3281 25.4383 30.314 25.4718C30.2465 25.6389 30.1902 25.81 30.1431 25.9852C30.1353 26.0132 30.1227 26.0387 30.1156 26.0667C29.7477 25.8047 29.3426 25.6001 28.9156 25.4457C28.8755 25.431 28.8347 25.4183 28.7932 25.4049C28.5934 25.3381 28.3894 25.2839 28.1805 25.2425C28.1404 25.2345 28.1017 25.2244 28.0616 25.2177C28.018 25.2104 27.9758 25.197 27.9314 25.1903C27.7985 25.0326 27.6831 24.8688 27.5867 24.701C27.5924 24.6856 27.5945 24.6689 27.6001 24.6535C27.6803 24.4329 27.745 24.2056 27.79 23.971C27.7978 23.9322 27.802 23.8935 27.809 23.8547C27.8498 23.618 27.8759 23.3767 27.8759 23.1287C27.8759 22.8807 27.8498 22.6394 27.8104 22.4021C27.8041 22.3626 27.7992 22.3238 27.7914 22.2851C27.7464 22.0504 27.6817 21.8231 27.6008 21.6019C27.5952 21.5858 27.5938 21.5698 27.5882 21.5544ZM22.9517 19.7862C24.3973 19.7862 25.641 20.6212 26.1806 21.8091C26.265 21.9963 26.3262 22.1888 26.374 22.384C26.3796 22.4067 26.3909 22.4275 26.3958 22.4509C26.4443 22.6728 26.469 22.8994 26.469 23.1287C26.469 23.358 26.4443 23.5846 26.3958 23.8066C26.3909 23.83 26.3796 23.85 26.374 23.8734C26.3269 24.0686 26.2657 24.2611 26.1806 24.4483C25.9217 25.0172 25.4996 25.5019 24.9727 25.8555C24.9362 25.8802 24.8989 25.905 24.8616 25.9277C24.6998 26.028 24.5296 26.1175 24.3509 26.1917C24.3192 26.2044 24.2869 26.2145 24.2552 26.2272C23.8507 26.3809 23.4125 26.4712 22.9517 26.4712C22.8462 26.4712 22.7428 26.4651 22.6401 26.4551C22.6232 26.4458 22.6049 26.4377 22.5873 26.4284C22.5001 26.3803 22.4108 26.3361 22.32 26.2933C22.2722 26.2706 22.2244 26.2486 22.1765 26.2272C22.0837 26.1871 21.9901 26.1503 21.8944 26.1155C21.848 26.0988 21.8009 26.0821 21.7538 26.0667C21.651 26.0326 21.5476 26.0019 21.4421 25.9745C21.4034 25.9644 21.3654 25.9551 21.3268 25.9464C21.2107 25.919 21.0939 25.8949 20.9743 25.8755C20.9638 25.8735 20.9539 25.8709 20.9434 25.8695C19.9958 25.2425 19.4345 24.2277 19.4345 23.1287C19.4345 21.2857 21.0123 19.7862 22.9517 19.7862ZM16.6207 30.4821C16.6207 28.6391 18.1985 27.1397 20.1379 27.1397C20.3454 27.1397 20.5459 27.1651 20.7436 27.1978C20.8006 27.2072 20.8576 27.2159 20.9138 27.2279C21.0932 27.2667 21.267 27.3181 21.4344 27.3817C21.4822 27.3997 21.5294 27.4191 21.5765 27.4391C21.7552 27.516 21.9289 27.6016 22.09 27.7045L22.1097 27.7166C22.4438 27.9325 22.7294 28.2072 22.9686 28.5161C23.0214 28.5843 23.0706 28.6545 23.1177 28.7253C23.1881 28.8329 23.2521 28.9453 23.3091 29.0602C23.3421 29.1264 23.3759 29.1926 23.4047 29.2608C23.4603 29.3952 23.5032 29.5349 23.5405 29.6766C23.556 29.7354 23.5764 29.7929 23.5883 29.8524C23.6291 30.057 23.6552 30.2669 23.6552 30.4821C23.6552 30.6887 23.6291 30.8892 23.5912 31.0858C23.5841 31.1205 23.5806 31.1553 23.5722 31.1894C23.5342 31.3558 23.4772 31.5156 23.4139 31.672C23.3872 31.7382 23.3597 31.8037 23.3281 31.8686C23.2852 31.9575 23.2324 32.0404 23.1818 32.1253C23.1269 32.2162 23.0769 32.3098 23.0136 32.3953C22.9559 32.4736 22.887 32.5424 22.8223 32.6153C22.6886 32.767 22.5416 32.9067 22.3819 33.0338C22.3053 33.0946 22.2335 33.1601 22.1512 33.2142C22.0605 33.2751 21.9613 33.3232 21.8642 33.3753C21.3528 33.6534 20.7682 33.8246 20.1379 33.8246C18.1985 33.8246 16.6207 32.3252 16.6207 30.4821ZM15.6542 40.1191C15.365 39.6264 15.2138 39.0763 15.2138 38.504C15.2138 36.661 16.7916 35.1616 18.731 35.1616C19.6596 35.1616 20.5002 35.5119 21.1291 36.0734C21.2606 36.1904 21.3767 36.3194 21.4864 36.4524C21.5223 36.4959 21.5638 36.5346 21.5976 36.5801C21.7137 36.7359 21.8107 36.903 21.8973 37.0748C21.9127 37.1055 21.9345 37.1336 21.9486 37.165C22.0387 37.3589 22.1062 37.5621 22.1561 37.7687C22.1596 37.7841 22.1674 37.7988 22.1709 37.8141C22.2215 38.0394 22.2483 38.2707 22.2483 38.504C22.2483 38.6584 22.2342 38.8162 22.2068 38.9813C21.8508 39.1471 21.5244 39.3617 21.2198 39.603C21.1607 39.6492 21.0981 39.6913 21.0419 39.7407C20.9462 39.8236 20.8604 39.9159 20.7717 40.0061C20.6951 40.0837 20.6163 40.1592 20.5452 40.2414C20.4735 40.3257 20.4095 40.4152 20.344 40.5042C20.292 40.5743 20.2322 40.6392 20.1844 40.7121C20.1689 40.7014 20.1513 40.694 20.1351 40.684C19.9635 40.5703 19.7841 40.4667 19.5977 40.3738C19.5428 40.3464 19.4865 40.3223 19.431 40.2969C19.2671 40.2227 19.0989 40.1565 18.9259 40.0997C18.8858 40.0863 18.8478 40.0703 18.807 40.0583C18.6023 39.9968 18.3906 39.9513 18.1753 39.9152C18.1197 39.9059 18.0635 39.8985 18.0079 39.8911C17.7828 39.8617 17.5563 39.841 17.3241 39.841C17.061 39.841 16.8043 39.8664 16.5525 39.9045C16.511 39.9105 16.4694 39.9152 16.4286 39.9226C16.1803 39.966 15.9398 40.0289 15.7055 40.1064C15.6886 40.1118 15.671 40.1131 15.6542 40.1191ZM17.3241 47.8629C15.3847 47.8629 13.8069 46.3635 13.8069 44.5205C13.8069 43.1848 14.6412 42.0377 15.8363 41.5036C15.9271 41.4634 16.0192 41.4273 16.1121 41.3953C16.2085 41.3612 16.307 41.3338 16.4068 41.3077C16.5194 41.2796 16.6319 41.2509 16.7459 41.2335C16.8134 41.2228 16.8845 41.2208 16.9534 41.2134C17.4261 41.1686 17.9024 41.2108 18.3533 41.3411C18.3962 41.3538 18.4391 41.3652 18.4813 41.3792C18.6122 41.422 18.7402 41.4735 18.8654 41.531C18.9378 41.5651 19.0082 41.6018 19.0771 41.6406C19.1742 41.6934 19.2713 41.7462 19.3627 41.8077C19.469 41.8799 19.5667 41.9608 19.6631 42.0437C19.7173 42.0898 19.7771 42.1299 19.8284 42.1801C19.8981 42.2469 19.9543 42.3251 20.0176 42.398C20.107 42.5003 20.1977 42.6012 20.273 42.7115C20.3251 42.7884 20.3651 42.872 20.4109 42.9528C20.47 43.0565 20.5326 43.1587 20.5797 43.2677C20.6254 43.3747 20.655 43.489 20.6894 43.6019C20.7169 43.6929 20.7534 43.7818 20.7731 43.8747C20.8161 44.0833 20.8414 44.2992 20.8414 44.5205C20.8414 44.7324 20.8154 44.9383 20.7753 45.1395C20.7527 45.2491 20.7148 45.3567 20.6803 45.465C20.6444 45.5807 20.6163 45.699 20.5677 45.8093L20.5621 45.8247C20.0268 47.0213 18.7768 47.8629 17.3241 47.8629ZM24.3586 46.5259C23.511 46.5259 22.7154 46.2438 22.0794 45.7244C22.083 45.7117 22.0844 45.6983 22.0879 45.685C22.1308 45.5259 22.1653 45.3641 22.1906 45.1996C22.1969 45.1615 22.204 45.1234 22.2089 45.0853C22.2321 44.9002 22.2483 44.7123 22.2483 44.5205C22.2483 44.2845 22.2237 44.0539 22.1878 43.8272C22.1807 43.7844 22.1751 43.7423 22.1674 43.6995C22.1259 43.4763 22.0682 43.2583 21.9943 43.0471C21.9838 43.017 21.9711 42.9876 21.9599 42.9582C21.7903 42.5056 21.5505 42.0865 21.2515 41.7094C21.2466 41.7034 21.2431 41.6961 21.2381 41.6901C21.2782 41.6152 21.3113 41.5356 21.357 41.4641C21.3795 41.4287 21.3999 41.3926 21.4238 41.3585C21.5469 41.1813 21.6848 41.0142 21.841 40.8625C21.8522 40.8511 21.8649 40.8417 21.8762 40.831C22.0415 40.6753 22.2208 40.5322 22.4171 40.4092L22.4192 40.4072C22.6246 40.2782 22.8455 40.1686 23.0791 40.0817L23.1311 40.0623C23.3238 39.9928 23.5229 39.9393 23.7276 39.9032C23.8177 39.8871 23.9014 39.8764 23.9823 39.8671C24.1075 39.8537 24.232 39.841 24.3586 39.841C24.5704 39.841 24.7751 39.8664 24.9763 39.9005C25.0396 39.9112 25.1029 39.9239 25.1655 39.9386C25.316 39.9727 25.4623 40.0168 25.6044 40.0683C25.6551 40.087 25.7078 40.0997 25.7578 40.1211C26.151 40.2842 26.5062 40.5135 26.8094 40.7943C26.9339 40.9093 27.0388 41.0369 27.1422 41.1653C27.1809 41.2134 27.2273 41.2542 27.2632 41.3043C27.3434 41.4153 27.4024 41.537 27.4679 41.6553C27.7197 42.1152 27.8759 42.63 27.8759 43.1835C27.8759 43.386 27.8491 43.5819 27.8133 43.7744C27.8055 43.8152 27.8006 43.8553 27.7914 43.8961C27.4461 45.3975 26.0399 46.5259 24.3586 46.5259ZM31.3931 44.5205C30.6052 44.5205 29.8526 44.2718 29.2363 43.8145C29.2384 43.8012 29.2377 43.7878 29.2391 43.7744C29.2652 43.5806 29.2828 43.384 29.2828 43.1835C29.2828 43.0297 29.2736 42.8773 29.2581 42.7262C29.2539 42.6861 29.2462 42.6473 29.2413 42.6072C29.2272 42.4956 29.2103 42.3846 29.1878 42.275C29.1794 42.2349 29.1688 42.1954 29.159 42.1553C29.1336 42.047 29.1055 41.9401 29.0717 41.8345C29.0598 41.7977 29.0471 41.7616 29.0344 41.7255C28.9979 41.6192 28.9578 41.5149 28.9135 41.4113C28.8987 41.3765 28.8825 41.3418 28.8663 41.307C28.8206 41.2074 28.7706 41.1098 28.7172 41.0129C28.6968 40.9754 28.6757 40.9387 28.6539 40.9026C28.6018 40.815 28.547 40.7294 28.4893 40.6452C28.4597 40.6024 28.4309 40.559 28.3999 40.5169C28.3479 40.446 28.2923 40.3771 28.236 40.3083C28.1938 40.2575 28.1523 40.206 28.108 40.1565C28.0925 40.1392 28.0792 40.1211 28.0637 40.1044C28.0932 40.0208 28.1354 39.944 28.1713 39.8637L28.2508 39.71C28.592 39.0508 29.1611 38.5094 29.854 38.1858L30.0383 38.0996C30.0896 38.0795 30.1396 38.0568 30.1923 38.0394C30.3035 38.0007 30.4167 37.9726 30.53 37.9458C30.5884 37.9318 30.646 37.9171 30.7058 37.9057C30.8085 37.8863 30.9119 37.8736 31.0154 37.8636C31.0836 37.8569 31.1518 37.8516 31.2208 37.8482C31.3192 37.8442 31.417 37.8436 31.5155 37.8469C31.6506 37.8516 31.7828 37.8663 31.9137 37.885C32.0522 37.9051 32.188 37.9331 32.3231 37.9686C32.4244 37.9953 32.5257 38.0227 32.6234 38.0575C32.7163 38.0902 32.807 38.1277 32.8964 38.1678C32.9998 38.2146 33.0997 38.2674 33.1975 38.3235C33.2643 38.3616 33.3339 38.3957 33.3986 38.4378C33.5407 38.5321 33.6716 38.6384 33.7975 38.7507C33.9304 38.8697 34.0458 39 34.1562 39.1331C34.1942 39.1792 34.2379 39.22 34.2737 39.2681C34.3652 39.3918 34.4369 39.5248 34.5094 39.6578C34.546 39.726 34.5924 39.7882 34.6247 39.8591C34.6824 39.9847 34.7176 40.1191 34.7577 40.2515C34.783 40.3344 34.8196 40.4126 34.8386 40.4981C34.8843 40.7194 34.9103 40.9467 34.9103 41.178C34.9103 43.021 33.3325 44.5205 31.3931 44.5205ZM38.4276 41.8465C37.6643 41.8465 36.9264 41.6092 36.3172 41.1726C36.3172 41.1693 36.3165 41.1666 36.3165 41.164C36.3158 40.9427 36.294 40.7261 36.2617 40.5129C36.2553 40.4741 36.2497 40.4353 36.2427 40.3965C36.1604 39.9366 36.0084 39.4994 35.796 39.095C35.7925 39.0883 35.789 39.0816 35.7854 39.0749C35.6722 38.863 35.5435 38.6605 35.3992 38.4679L35.3971 38.4639C35.7334 38.2647 36.0366 38.0254 36.3095 37.7587C36.3566 37.7125 36.4017 37.6651 36.4467 37.6176C36.5522 37.506 36.6507 37.3896 36.7442 37.2693C36.7857 37.2158 36.8301 37.165 36.8687 37.1102C36.9764 36.9585 37.0742 36.8007 37.1621 36.6383C37.2141 36.5433 37.2578 36.4444 37.3028 36.3461C37.3372 36.2699 37.371 36.193 37.4013 36.1148C37.4484 35.9945 37.4927 35.8742 37.53 35.7498C37.5356 35.7305 37.5391 35.7111 37.5448 35.6917C37.582 35.5593 37.6193 35.427 37.6447 35.2913C37.9077 35.2271 38.2363 35.1616 38.4276 35.1616C38.6604 35.1616 38.8876 35.1856 39.1078 35.2271C39.2049 35.2451 39.2971 35.2792 39.3913 35.3053C39.5109 35.338 39.6326 35.3661 39.7465 35.4102C39.8584 35.4537 39.9639 35.5125 40.0708 35.5673C40.1588 35.6121 40.2495 35.6509 40.3325 35.7024C40.4458 35.7726 40.5499 35.8568 40.6554 35.9397C41.4362 36.5527 41.9448 37.4685 41.9448 38.504C41.9448 40.3471 40.367 41.8465 38.4276 41.8465ZM43.3517 31.8191C43.3517 33.0785 42.5913 34.2317 41.425 34.7959C41.4123 34.7865 41.3983 34.7805 41.3856 34.7718C40.9888 34.4871 40.5471 34.2591 40.0701 34.098C40.0392 34.0873 40.0096 34.0759 39.9787 34.0659C39.7557 33.9957 39.5264 33.9409 39.2907 33.9008C39.2464 33.8934 39.2021 33.8874 39.1571 33.8814C38.9186 33.848 38.6759 33.8246 38.4276 33.8246C38.4107 33.8246 38.3474 33.8299 38.2665 33.8379C38.0702 33.844 37.8747 33.858 37.6805 33.8867C37.6784 33.8727 37.6735 33.8587 37.6714 33.8446C37.6454 33.6682 37.6088 33.4957 37.563 33.3266C37.5546 33.2965 37.5476 33.2664 37.5384 33.2363C37.4195 32.8319 37.2451 32.4508 37.0228 32.0985C37.0108 32.0791 36.9989 32.0604 36.9862 32.0417C36.8702 31.8639 36.7463 31.6908 36.6071 31.5296C36.6268 31.523 36.6443 31.5129 36.6633 31.5063C36.8139 31.4521 36.9602 31.3906 37.103 31.3238C37.1248 31.3131 37.1459 31.3024 37.1677 31.2917C37.3225 31.2155 37.4723 31.1326 37.6172 31.0423C37.62 31.0403 37.6228 31.039 37.6257 31.037C38.5767 30.4393 39.2956 29.5416 39.6284 28.484C41.6423 28.3637 43.3517 29.9112 43.3517 31.8191ZM44.7938 21.8251C48.4721 22.1574 51.4083 24.9477 51.7579 28.4432C48.0796 28.111 45.1434 25.3207 44.7938 21.8251Z" fill="#F7F7FA"/>
<defs>
<filter id="filter0_d_44_447" x="2.8" y="6" width="54.4" height="54.4" filterUnits="userSpaceOnUse" color-interpolation-filters="sRGB">
<feFlood flood-opacity="0" result="BackgroundImageFix"/>
<feColorMatrix in="SourceAlpha" type="matrix" values="0 0 0 0 0 0 0 0 0 0 0 0 0 0 0 0 0 0 127 0" result="hardAlpha"/>
<feOffset dy="3.2"/>
<feGaussianBlur stdDeviation="1.6"/>
<feComposite in2="hardAlpha" operator="out"/>
<feColorMatrix type="matrix" values="0 0 0 0 0 0 0 0 0 0 0 0 0 0 0 0 0 0 0.25 0"/>
<feBlend mode="normal" in2="BackgroundImageFix" result="effect1_dropShadow_44_447"/>
<feBlend mode="normal" in="SourceGraphic" in2="effect1_dropShadow_44_447" result="shape"/>
</filter>
</defs>
</svg>
