<svg width="18" height="15" viewBox="0 0 18 15" fill="none" xmlns="http://www.w3.org/2000/svg">
<path d="M1.68 0.780029C0.7525 0.780029 0 1.53253 0 2.46003C0 2.98853 0.2485 3.48553 0.672 3.80403L8.288 9.51603C8.687 9.81353 9.233 9.81353 9.632 9.51603L17.248 3.80403C17.6715 3.48553 17.92 2.98853 17.92 2.46003C17.92 1.53253 17.1675 0.780029 16.24 0.780029H1.68ZM0 4.70003V11.98C0 13.2155 1.0045 14.22 2.24 14.22H15.68C16.9155 14.22 17.92 13.2155 17.92 11.98V4.70003L10.304 10.412C9.506 11.0105 8.414 11.0105 7.616 10.412L0 4.70003Z" fill="#F7F7FA"/>
</svg>
