<svg width="18" height="19" viewBox="0 0 18 19" fill="none" xmlns="http://www.w3.org/2000/svg">
<path d="M5.7715 1.40134C5.502 0.75034 4.7915 0.40384 4.1125 0.58934L1.0325 1.42934C0.4235 1.59734 0 2.15034 0 2.78034C0 11.4393 7.021 18.4603 15.68 18.4603C16.31 18.4603 16.863 18.0368 17.031 17.4278L17.871 14.3478C18.0565 13.6688 17.71 12.9583 17.059 12.6888L13.699 11.2888C13.1285 11.0508 12.467 11.2153 12.0785 11.6948L10.6645 13.4203C8.2005 12.2548 6.2055 10.2598 5.04 7.79584L6.7655 6.38534C7.245 5.99334 7.4095 5.33534 7.1715 4.76484L5.7715 1.40484V1.40134Z" fill="#F7F7FA"/>
</svg>
