<svg width="1007" height="691" viewBox="0 0 1007 691" fill="none" xmlns="http://www.w3.org/2000/svg">
<g id="wardmap">
<g id="Left Ward" filter="url(#filter0_d_193_1004)">
<path d="M295.072 374.72C295.072 374.72 296.419 678.285 295.817 678.567C295.214 678.849 107.991 679.097 107.991 679.097L59.9943 679.526C59.9943 679.526 12.6981 679.48 12.4954 679.007C12.2926 678.534 13.6821 553.986 13.6821 553.986C13.6821 553.986 17.8508 209.466 18.1716 208.654C18.4925 207.843 19.0123 206.945 19.2812 206.663C19.55 206.382 20.8793 109.944 20.8793 109.944L22.2296 40.1691C22.2296 40.1691 22.8297 13.088 23.1164 12.888C23.403 12.688 30.0682 12.7789 37.1584 11.7546C48.9872 10.0456 64.1489 7.10175 64.864 7.11813C66.425 7.1539 70.7654 7.28144 73.2167 7.4593C75.668 7.63715 78.2457 6.86973 78.9746 6.06439C79.918 5.02201 81.4187 5.1469 82.3406 5.53538C83.8764 6.18253 104.062 14.2006 105.247 14.7464C109.372 16.6474 115.395 18.6209 117.539 19.1747C119.683 19.7285 129.288 19.8667 131.729 20.3338C134.171 20.801 137.611 22.1763 138.589 22.3053C139.372 22.4085 142.51 20.9914 143.44 21.1343C144.37 21.2772 141.793 183.745 141.887 184.016C141.981 184.287 193.29 209.801 193.29 209.801L238.387 232.009L253.73 235.464C258.377 238.61 266.269 243.856 267.169 244.354C267.679 244.637 275.097 248.66 284.904 253.579C289.707 255.873 293.515 260.932 295.058 263.535L295.072 374.72Z" fill="#F7F7FA" fill-opacity="0.4" shape-rendering="crispEdges"/>
<path d="M295.072 374.72C295.072 374.72 296.419 678.285 295.817 678.567C295.214 678.849 107.991 679.097 107.991 679.097L59.9943 679.526C59.9943 679.526 12.6981 679.48 12.4954 679.007C12.2926 678.534 13.6821 553.986 13.6821 553.986C13.6821 553.986 17.8508 209.466 18.1716 208.654C18.4925 207.843 19.0123 206.945 19.2812 206.663C19.55 206.382 20.8793 109.944 20.8793 109.944L22.2296 40.1691C22.2296 40.1691 22.8297 13.088 23.1164 12.888C23.403 12.688 30.0682 12.7789 37.1584 11.7546C48.9872 10.0456 64.1489 7.10175 64.864 7.11813C66.425 7.1539 70.7654 7.28144 73.2167 7.4593C75.668 7.63715 78.2457 6.86973 78.9746 6.06439C79.918 5.02201 81.4187 5.1469 82.3406 5.53538C83.8764 6.18253 104.062 14.2006 105.247 14.7464C109.372 16.6474 115.395 18.6209 117.539 19.1747C119.683 19.7285 129.288 19.8667 131.729 20.3338C134.171 20.801 137.611 22.1763 138.589 22.3053C139.372 22.4085 142.51 20.9914 143.44 21.1343C144.37 21.2772 141.793 183.745 141.887 184.016C141.981 184.287 193.29 209.801 193.29 209.801L238.387 232.009L253.73 235.464C258.377 238.61 266.269 243.856 267.169 244.354C267.679 244.637 275.097 248.66 284.904 253.579C289.707 255.873 293.515 260.932 295.058 263.535L295.072 374.72Z" stroke="#AEAEAE" stroke-width="5" shape-rendering="crispEdges"/>
</g>
<g id="Small Ward">
<path d="M145.538 182.322C145.531 182.305 145.535 182.294 145.55 182.289C145.906 179.541 146.731 20.6036 147.517 19.8419C148.311 19.0715 149.49 19.1374 149.8 18.9287C150.111 18.72 153.563 19.6543 154.014 19.6431C154.466 19.6319 159.01 17.9984 159.01 17.9984C161.279 17.1121 164.555 15.5354 167.502 14.2931C170.842 12.8851 170.215 12.798 172.939 11.6741C175.119 10.7751 182.588 11.2309 183.038 11.2365C183.488 11.2422 188.722 9.39525 188.722 9.39525C192.816 8.26979 198.385 9.15965 199.411 9.52618C200.656 9.97125 208.638 13.3128 210.263 14.1761C211.193 14.6703 217.94 16.8161 220.244 17.1449C225.147 17.8845 224.825 19.3219 228.313 19.1408C230.846 18.7454 231.764 18.38 232.301 18.3141C237 17.7382 245.704 18.7422 248.191 18.7987C250.607 18.8536 261.662 19.1919 263.055 18.8123C266.688 17.8225 273.63 14.9249 275.948 13.5852C278.266 12.2455 284.073 9.82227 286.282 9.0324C288.026 8.40893 289.462 9.05891 292.821 8.58989L294.282 257.045C293.357 255.849 293.153 255.651 291.782 254.44C289.127 252.093 283.007 249.186 281.885 248.5C280.594 247.712 271.168 242.794 269.702 241.944C262.219 237.605 259.803 234.651 254.733 231.717C251.567 231.612 241.945 229.182 240.946 228.981C238.027 228.393 224.836 222.326 218.14 218.528L170.75 194.957C170.75 194.957 146.252 182.063 145.55 182.289C145.546 182.32 145.542 182.331 145.538 182.322Z" fill="#F7F7FA" fill-opacity="0.4"/>
<path d="M145.538 182.322C145.189 181.503 170.75 194.957 170.75 194.957L218.14 218.528C224.836 222.326 238.027 228.393 240.946 228.981C241.945 229.182 251.567 231.612 254.733 231.717C259.803 234.651 262.219 237.605 269.702 241.944C271.168 242.794 280.594 247.712 281.885 248.5C283.007 249.186 289.127 252.093 291.782 254.44C293.153 255.651 293.357 255.849 294.282 257.045L292.821 8.58989C289.462 9.05891 288.026 8.40893 286.282 9.0324C284.073 9.82227 278.266 12.2455 275.948 13.5852C273.63 14.9249 266.688 17.8225 263.055 18.8123C261.662 19.1919 250.607 18.8536 248.191 18.7987C245.704 18.7422 237 17.7382 232.301 18.3141C231.764 18.38 230.846 18.7454 228.313 19.1408C224.825 19.3219 225.147 17.8845 220.244 17.1449C217.94 16.8161 211.193 14.6703 210.263 14.1761C208.638 13.3128 200.656 9.97125 199.411 9.52618C198.385 9.15965 192.816 8.26979 188.722 9.39525C188.722 9.39525 183.488 11.2422 183.038 11.2365C182.588 11.2309 175.119 10.7751 172.939 11.6741C170.215 12.798 170.842 12.8851 167.502 14.2931C164.555 15.5354 161.279 17.1121 159.01 17.9984C159.01 17.9984 154.466 19.6319 154.014 19.6431C153.563 19.6543 150.111 18.72 149.8 18.9287C149.49 19.1374 148.311 19.0715 147.517 19.8419C146.722 20.6122 145.888 183.14 145.538 182.322Z" stroke="#AEAEAE" stroke-width="5"/>
</g>
<g id="Middle Ward" filter="url(#filter1_d_193_1004)">
<path d="M300.444 678.529C301.266 679.417 599.38 673.238 599.765 672.82C600.15 672.401 601.189 611.032 601.189 611.032L596.64 36.0641C590.1 32.2245 583.85 28.2539 580.113 28.0595C576.639 27.8789 570.318 25.6243 564.18 23.627C562.694 23.1432 552.048 19.0447 550.463 18.3386C549.537 17.9262 543.097 17.3487 542.164 16.6714C541.231 15.994 536.281 12.4038 534.798 12.1196C533.314 11.8353 519.261 10.05 518.251 9.899C517.241 9.74796 493.043 9.94203 488.106 10.4465C486.444 10.6163 480.748 11.1169 476.572 10.9784C473.232 10.8675 456.048 10.6563 447.668 10.6526C435.712 10.4714 410.015 9.7441 407.065 9.41114C403.376 8.99495 398.403 6.95109 398.045 6.93921C397.688 6.92734 394.041 5.90718 390.816 5.91774C387.591 5.92829 384.246 6.96852 379.096 8.83504C376.189 9.88881 374.304 9.27398 372.099 9.07691C369.812 8.87259 363.745 8.8318 362.152 8.25005C360.559 7.66829 353.838 3.81312 352.186 3.22939C350.533 2.64566 341.981 3.46892 338.577 3.47354C335.173 3.47816 328.431 4.11532 326.847 5.06182C325.263 6.00833 323.069 7.1523 318.284 6.32529C316.34 5.9894 312.792 5.48629 310.151 5.35209C307.319 5.20814 303.391 6.30566 301.521 6.89006C300.024 7.35757 299.556 7.06497 296.983 7.7252L299.072 256.776L300.063 341.81C300.063 341.81 299.622 677.641 300.444 678.529Z" fill="#F7F7FA" fill-opacity="0.4" shape-rendering="crispEdges"/>
<path d="M300.444 678.529C301.266 679.417 599.38 673.238 599.765 672.82C600.15 672.401 601.189 611.032 601.189 611.032L596.64 36.0641C590.1 32.2245 583.85 28.2539 580.113 28.0595C576.639 27.8789 570.318 25.6243 564.18 23.627C562.694 23.1432 552.048 19.0447 550.463 18.3386C549.537 17.9262 543.097 17.3487 542.164 16.6714C541.231 15.994 536.281 12.4038 534.798 12.1196C533.314 11.8353 519.261 10.05 518.251 9.899C517.241 9.74796 493.043 9.94203 488.106 10.4465C486.444 10.6163 480.748 11.1169 476.572 10.9784C473.232 10.8675 456.048 10.6563 447.668 10.6526C435.712 10.4714 410.015 9.7441 407.065 9.41114C403.376 8.99495 398.403 6.95109 398.045 6.93921C397.688 6.92734 394.041 5.90718 390.816 5.91774C387.591 5.92829 384.246 6.96852 379.096 8.83504C376.189 9.88881 374.304 9.27398 372.099 9.07691C369.812 8.87259 363.745 8.8318 362.152 8.25005C360.559 7.66829 353.838 3.81312 352.186 3.22939C350.533 2.64566 341.981 3.46892 338.577 3.47354C335.173 3.47816 328.431 4.11532 326.847 5.06182C325.263 6.00833 323.069 7.1523 318.284 6.32529C316.34 5.9894 312.792 5.48629 310.151 5.35209C307.319 5.20814 303.391 6.30566 301.521 6.89006C300.024 7.35757 299.556 7.06497 296.983 7.7252L299.072 256.776L300.063 341.81C300.063 341.81 299.622 677.641 300.444 678.529Z" stroke="#AEAEAE" stroke-width="5" shape-rendering="crispEdges"/>
</g>
<g id="Right Ward" filter="url(#filter2_d_193_1004)">
<path d="M729.024 613.892C729.024 613.892 606.654 613.386 606.095 612.691C605.535 611.996 601.667 39.6511 601.667 39.6511C603.92 41.3351 605.342 42.1773 605.666 42.4707C606.072 42.8374 612.887 47.0456 613.412 47.4162C613.832 47.7128 618.157 49.0286 620.031 49.5421L627.272 54.3418L641.04 66.4826L656.012 77.9037L667.757 84.0502L696.049 98.8414C696.218 99.0529 688.421 96.9626 686.4 97.4136C683.873 97.9774 687.352 101.305 686.692 101.401C686.032 101.497 684.152 99.3944 683.238 99.9528C682.323 100.511 681.338 102.565 681.323 103.035C681.307 103.506 680.478 106.322 680.264 107.375C680.092 108.217 679.873 109.661 679.87 110.348C680.648 112.101 682.18 115.377 682.317 115.569C682.488 115.811 686.422 118.239 686.88 118.843C687.337 119.447 684.889 119.527 684.102 119.854C683.315 120.181 680.842 121.829 680.287 122.341C679.844 122.75 677.678 124.224 676.686 125.063L674.049 127.856C673.708 128.209 672.711 133.567 672.699 133.943C672.683 134.413 671.365 141.692 671.042 142.446C670.718 143.201 670.321 144.379 670.311 144.673C670.303 144.908 670.778 147.662 671.245 149.188C671.894 150.034 673.283 151.823 673.653 152.212C674.022 152.601 676.829 154.341 677.637 154.55C678.445 154.758 682.155 154.511 682.367 154.551C682.578 154.59 682.043 161.449 682.043 162.063C682.044 162.677 692.872 168.575 693.038 169.916C693.204 171.258 693.032 178.724 693.045 179.364C693.064 180.305 693.713 181.454 693.947 181.852C694.419 182.653 698.563 187.638 700.976 190.525L699.963 198.073C699.488 199.196 698.724 201.381 698.756 201.853C698.797 202.443 699.761 204.849 700.219 205.453C700.585 205.936 703.746 208.598 703.714 209.556L701.932 217.055L698.9 225.107C698.775 225.65 703.583 230.74 703.902 231.175C704.302 231.718 700.166 242.069 699.533 243.167C698.899 244.264 697.159 249.443 696.707 250.488C696.254 251.533 696.251 253.417 695.578 253.924C694.904 254.432 692.108 254.104 688.933 254.41C685.759 254.717 686.339 255.208 685.793 255.484C685.246 255.76 685.1 256.579 684.967 256.987C684.834 257.395 685.704 259.955 685.802 260.606C685.9 261.257 686.608 264.583 686.65 265.115C686.684 265.54 687.678 270.742 688.17 273.29L688.557 275.378C688.88 277.665 689.522 282.31 689.512 282.592C689.501 282.945 691.073 284.442 691.467 284.511C691.81 284.571 693.543 284.156 694.161 283.529C694.779 282.902 694.906 280.266 694.81 279.556C694.714 278.846 695.238 277.815 695.251 277.403C695.262 277.074 700.203 280.25 700.306 280.415C700.409 280.58 698.496 289.559 698.496 289.559C698.552 291.484 698.661 295.393 698.653 295.628C698.643 295.923 698.074 299.528 698.056 300.057C698.039 300.586 700.801 304.046 701.205 304.472C701.609 304.897 703.553 306.03 705.058 305.668C706.563 305.306 706.262 304.761 706.672 303.185C707.001 301.925 707.905 296.735 708.414 294.593C708.414 294.593 712.377 295.652 708.221 292.273C704.066 288.894 710.827 293.848 711.058 294.092C711.347 294.396 713.737 294.753 714.347 294.361C714.957 293.969 714.519 292.15 714.469 291.854C714.42 291.558 709.522 285.165 708.481 284.129C707.441 283.094 707.086 281.866 707.439 281.464C708.187 280.611 714.361 266.25 717.258 259.321C717.86 257.398 718.185 255.98 718.373 254.62C718.609 252.92 718.771 250.244 718.516 248.94C718.26 247.636 717.304 245.969 717.264 245.379C717.224 244.789 716.362 236.279 716.268 235.51C716.174 234.742 713.251 218.991 713.111 217.809C712.971 216.627 717.497 227.354 717.606 227.652C717.716 227.95 720.277 229.63 720.726 230.47C721.176 231.309 723.883 232.595 724.71 232.858C725.538 233.121 727.397 233.022 728.377 232.438L728.39 232.43C729.215 231.937 730.625 231.097 731.108 230.013C731.607 228.892 732.988 226.487 733.091 225.195C733.193 223.903 732.897 221.565 732.457 220.432C732.017 219.298 730.775 216.099 730.341 214.789C729.907 213.48 728.808 213.054 727.997 212.321C727.185 211.588 725.879 211.1 725.158 209.727C724.617 208.695 724.842 203.449 724.875 202.449C724.908 201.449 724.895 198.523 724.882 197.11C724.869 195.696 724.898 195.317 724.207 194.355C723.687 193.63 723.095 193.116 722.037 192.61C720.979 192.104 719.899 191.379 719.429 191.128C718.96 190.877 719.13 186.18 718.827 184.521C718.523 182.862 717.674 182.704 718.141 181.791C718.604 180.885 719.057 180.202 719.419 180.096C719.708 180.011 719.539 179.905 725.163 179.709C728.211 179.218 737.965 176.268 738.95 175.172C741.51 172.327 742.87 166.37 743.521 164.971C744.092 163.745 743.985 161.012 744.013 160.18C744.047 159.161 744.471 156.411 743.763 155.344C740.661 151.631 734.148 144.164 733.52 143.454C733.187 143.078 731.116 141.598 729.799 141.391C728.739 141.224 727.284 142.614 725.91 142.627C724.536 142.64 724.105 143.07 723.02 143.387C721.935 143.704 720.939 142.857 720.886 141.535C720.845 140.522 720.36 138.432 719.997 137.111C719.709 136.067 718.74 133.309 718.481 132.123C718.274 131.174 719.088 131.084 719.255 130.854C720.284 130.437 722.609 129.641 723.108 128.998C723.731 128.195 725.32 126.139 725.537 125.715C725.9 125.005 726.191 123.205 725.928 122.136C725.664 121.068 724.918 119.973 724.516 119.489C724.114 119.004 723.157 117.648 722.93 117.288C722.703 116.927 722.54 112.386 722.588 111.738C722.731 109.771 719.921 108.354 719.059 107.345C716.664 106.323 711.699 104.192 710.994 103.839C710.113 103.398 704.19 100.14 704.144 99.726C704.108 99.395 704.614 98.6913 704.776 98.6872C704.938 98.683 730.028 111.476 730.028 111.476L740.646 111.829L746.739 117.153L778.278 127.619L817.953 134.058L859.51 135.966L883.946 137.043L907.228 137.001L914.481 137.242L926.328 134.38L938.6 130.672C944.994 129.923 957.906 127.56 957.709 127.742C957.463 127.969 956.104 129.223 955.856 129.509C955.608 129.795 954.963 131.246 954.587 131.763C954.287 132.177 953.885 133.447 953.954 133.744C954.15 136.243 954.346 140.996 954.323 141.702C954.299 142.407 954.376 143.686 954.418 144.237L954.569 150.482C954.503 151.265 954.381 152.89 954.421 153.127C954.471 153.423 955.83 155.646 955.932 156.18C956.014 156.606 956.438 157.747 956.639 158.264C957.871 159.541 960.439 162.158 960.861 162.407C961.283 162.657 961.333 163.188 961.305 163.423C961.07 163.906 960.511 165.045 960.153 165.74C959.706 166.608 959.425 167.362 958.511 167.92C957.597 168.479 957.63 168.383 956.72 168.824C955.81 169.264 955.386 169.545 955.011 170.063C954.461 170.823 954.432 170.79 954.29 171.491C954.147 172.193 954.05 173.309 953.973 173.836C953.896 174.363 955.276 177.765 955.483 178.714C955.649 179.473 956.074 180.107 956.266 180.329C957.201 181.518 959.119 183.957 959.302 184.198C959.531 184.5 961.011 186.699 961.425 186.83C961.839 186.962 964.905 188.284 965.434 188.537C965.963 188.79 966.839 189.104 966.83 189.398C966.82 189.692 966.116 191.195 965.804 191.597C965.492 191.998 963.656 193.35 963.173 193.511C962.69 193.672 961.166 195.461 960.374 195.906C959.742 196.262 958.94 198.12 958.691 199.014C958.41 199.785 968.06 209.175 968.341 209.373C968.691 209.62 968.56 211.117 968.537 211.822C968.513 212.528 968.773 213.714 969.161 214.61C969.549 215.506 970.297 216.93 971.24 217.314C972.183 217.699 970.619 219.223 970.422 219.746C970.226 220.27 970.003 222.446 969.934 223.343C969.826 224.767 969.886 226.939 969.975 227.884C970.045 228.64 971.282 231.656 971.892 233.07C972.712 234.176 973.983 236.503 974.461 236.913C974.723 237.139 978.224 239.224 978.506 239.992C978.806 240.811 978.848 241.734 978.045 242.77C977.498 243.477 976.943 246.425 976.077 247.339C975.21 248.252 973.634 248.965 972.714 249.7C971.794 250.435 970.144 253.383 969.516 254.304C968.888 255.225 969.673 255.921 970.348 257.18C971.023 258.439 972.364 259.372 972.241 260.309C972.131 261.145 970.289 263.396 969.594 264.551C968.899 265.705 968.237 265.86 967.677 266.548C967.117 267.236 968.022 268.738 968.528 269.696C969.033 270.655 969.835 271.561 970.79 271.616C972.048 271.688 976.39 268.64 976.86 268.612C977.33 268.583 973.405 272.202 973.315 272.385C973.163 272.694 972.838 282.019 972.895 283C972.927 283.532 973.577 286.702 973.724 287.649C973.872 288.596 977.068 291.597 977.776 291.856C978.343 292.063 984.053 292.291 984.402 292.187C984.752 292.082 984.076 296.235 983.485 296.781C982.746 297.463 980.336 298.937 980.072 299.693C979.808 300.45 981.409 302.617 981.264 303.378C981.119 304.138 979.084 310.754 978.044 312.943C977.507 314.074 975.327 313.136 974.075 313.095C972.822 313.053 972.269 314.052 971.897 314.452C971.6 314.771 970.672 317.26 970.555 318.394C970.547 319.21 973.503 322.753 973.632 323.181C973.794 323.716 973.099 331.123 972.538 332.414C972.067 333.496 972.904 335.782 973 336.491C973.096 337.201 976.63 339.733 976.945 340.656C978.154 344.21 979.064 346.619 978.702 347.363C978.008 348.789 974.556 349.923 973.746 350.956C972.935 351.989 974.445 354.753 974.348 355.868C974.251 356.983 969.306 362.753 967.883 364.236C966.461 365.72 963.008 371.648 964.269 371.454C965.529 371.26 972.837 367.541 974.789 366.311C976.741 365.08 980.089 369.523 981.133 370.413C983.846 372.726 984.358 375.429 984.82 375.916C985.281 376.402 986.494 377.521 988.485 378.706C990.475 379.89 992.048 381.848 992.206 382.498C992.571 383.997 993.563 385.857 993.226 387.023C992.889 388.189 990.602 388.746 990.236 388.97C989.871 389.193 989.299 392.807 988.136 394.637C986.883 396.607 983.625 399.323 982.26 400.868C980.895 402.412 984.682 407.206 984.668 407.618C984.654 408.03 988.289 409.827 988.643 409.956C988.926 410.06 988.435 610.343 987.987 610.507C987.54 610.672 907.951 607.816 907.951 607.816L837.326 609.447L811.504 612.746L729.024 613.892Z" fill="#F7F7FA" fill-opacity="0.4" shape-rendering="crispEdges"/>
<path d="M729.024 613.892C729.024 613.892 606.654 613.386 606.095 612.691C605.535 611.996 601.667 39.6511 601.667 39.6511C603.92 41.3351 605.342 42.1773 605.666 42.4707C606.072 42.8374 612.887 47.0456 613.412 47.4162C613.832 47.7128 618.157 49.0286 620.031 49.5421L627.272 54.3418L641.04 66.4826L656.012 77.9037L667.757 84.0502L696.049 98.8414C696.218 99.0529 688.421 96.9626 686.4 97.4136C683.873 97.9774 687.352 101.305 686.692 101.401C686.032 101.497 684.152 99.3944 683.238 99.9528C682.323 100.511 681.338 102.565 681.323 103.035C681.307 103.506 680.478 106.322 680.264 107.375C680.092 108.217 679.873 109.661 679.87 110.348C680.648 112.101 682.18 115.377 682.317 115.569C682.488 115.811 686.422 118.239 686.88 118.843C687.337 119.447 684.889 119.527 684.102 119.854C683.315 120.181 680.842 121.829 680.287 122.341C679.844 122.75 677.678 124.224 676.686 125.063L674.049 127.856C673.708 128.209 672.711 133.567 672.699 133.943C672.683 134.413 671.365 141.692 671.042 142.446C670.718 143.201 670.321 144.379 670.311 144.673C670.303 144.908 670.778 147.662 671.245 149.188C671.894 150.034 673.283 151.823 673.653 152.212C674.022 152.601 676.829 154.341 677.637 154.55C678.445 154.758 682.155 154.511 682.367 154.551C682.578 154.59 682.043 161.449 682.043 162.063C682.044 162.677 692.872 168.575 693.038 169.916C693.204 171.258 693.032 178.724 693.045 179.364C693.064 180.305 693.713 181.454 693.947 181.852C694.419 182.653 698.563 187.638 700.976 190.525L699.963 198.073C699.488 199.196 698.724 201.381 698.756 201.853C698.797 202.443 699.761 204.849 700.219 205.453C700.585 205.936 703.746 208.598 703.714 209.556L701.932 217.055L698.9 225.107C698.775 225.65 703.583 230.74 703.902 231.175C704.302 231.718 700.166 242.069 699.533 243.167C698.899 244.264 697.159 249.443 696.707 250.488C696.254 251.533 696.251 253.417 695.578 253.924C694.904 254.432 692.108 254.104 688.933 254.41C685.759 254.717 686.339 255.208 685.793 255.484C685.246 255.76 685.1 256.579 684.967 256.987C684.834 257.395 685.704 259.955 685.802 260.606C685.9 261.257 686.608 264.583 686.65 265.115C686.684 265.54 687.678 270.742 688.17 273.29L688.557 275.378C688.88 277.665 689.522 282.31 689.512 282.592C689.501 282.945 691.073 284.442 691.467 284.511C691.81 284.571 693.543 284.156 694.161 283.529C694.779 282.902 694.906 280.266 694.81 279.556C694.714 278.846 695.238 277.815 695.251 277.403C695.262 277.074 700.203 280.25 700.306 280.415C700.409 280.58 698.496 289.559 698.496 289.559C698.552 291.484 698.661 295.393 698.653 295.628C698.643 295.923 698.074 299.528 698.056 300.057C698.039 300.586 700.801 304.046 701.205 304.472C701.609 304.897 703.553 306.03 705.058 305.668C706.563 305.306 706.262 304.761 706.672 303.185C707.001 301.925 707.905 296.735 708.414 294.593C708.414 294.593 712.377 295.652 708.221 292.273C704.066 288.894 710.827 293.848 711.058 294.092C711.347 294.396 713.737 294.753 714.347 294.361C714.957 293.969 714.519 292.15 714.469 291.854C714.42 291.558 709.522 285.165 708.481 284.129C707.441 283.094 707.086 281.866 707.439 281.464C708.187 280.611 714.361 266.25 717.258 259.321C717.86 257.398 718.185 255.98 718.373 254.62C718.609 252.92 718.771 250.244 718.516 248.94C718.26 247.636 717.304 245.969 717.264 245.379C717.224 244.789 716.362 236.279 716.268 235.51C716.174 234.742 713.251 218.991 713.111 217.809C712.971 216.627 717.497 227.354 717.606 227.652C717.716 227.95 720.277 229.63 720.726 230.47C721.176 231.309 723.883 232.595 724.71 232.858C725.538 233.121 727.397 233.022 728.377 232.438L728.39 232.43C729.215 231.937 730.625 231.097 731.108 230.013C731.607 228.892 732.988 226.487 733.091 225.195C733.193 223.903 732.897 221.565 732.457 220.432C732.017 219.298 730.775 216.099 730.341 214.789C729.907 213.48 728.808 213.054 727.997 212.321C727.185 211.588 725.879 211.1 725.158 209.727C724.617 208.695 724.842 203.449 724.875 202.449C724.908 201.449 724.895 198.523 724.882 197.11C724.869 195.696 724.898 195.317 724.207 194.355C723.687 193.63 723.095 193.116 722.037 192.61C720.979 192.104 719.899 191.379 719.429 191.128C718.96 190.877 719.13 186.18 718.827 184.521C718.523 182.862 717.674 182.704 718.141 181.791C718.604 180.885 719.057 180.202 719.419 180.096C719.708 180.011 719.539 179.905 725.163 179.709C728.211 179.218 737.965 176.268 738.95 175.172C741.51 172.327 742.87 166.37 743.521 164.971C744.092 163.745 743.985 161.012 744.013 160.18C744.047 159.161 744.471 156.411 743.763 155.344C740.661 151.631 734.148 144.164 733.52 143.454C733.187 143.078 731.116 141.598 729.799 141.391C728.739 141.224 727.284 142.614 725.91 142.627C724.536 142.64 724.105 143.07 723.02 143.387C721.935 143.704 720.939 142.857 720.886 141.535C720.845 140.522 720.36 138.432 719.997 137.111C719.709 136.067 718.74 133.309 718.481 132.123C718.274 131.174 719.088 131.084 719.255 130.854C720.284 130.437 722.609 129.641 723.108 128.998C723.731 128.195 725.32 126.139 725.537 125.715C725.9 125.005 726.191 123.205 725.928 122.136C725.664 121.068 724.918 119.973 724.516 119.489C724.114 119.004 723.157 117.648 722.93 117.288C722.703 116.927 722.54 112.386 722.588 111.738C722.731 109.771 719.921 108.354 719.059 107.345C716.664 106.323 711.699 104.192 710.994 103.839C710.113 103.398 704.19 100.14 704.144 99.726C704.108 99.395 704.614 98.6913 704.776 98.6872C704.938 98.683 730.028 111.476 730.028 111.476L740.646 111.829L746.739 117.153L778.278 127.619L817.953 134.058L859.51 135.966L883.946 137.043L907.228 137.001L914.481 137.242L926.328 134.38L938.6 130.672C944.994 129.923 957.906 127.56 957.709 127.742C957.463 127.969 956.104 129.223 955.856 129.509C955.608 129.795 954.963 131.246 954.587 131.763C954.287 132.177 953.885 133.447 953.954 133.744C954.15 136.243 954.346 140.996 954.323 141.702C954.299 142.407 954.376 143.686 954.418 144.237L954.569 150.482C954.503 151.265 954.381 152.89 954.421 153.127C954.471 153.423 955.83 155.646 955.932 156.18C956.014 156.606 956.438 157.747 956.639 158.264C957.871 159.541 960.439 162.158 960.861 162.407C961.283 162.657 961.333 163.188 961.305 163.423C961.07 163.906 960.511 165.045 960.153 165.74C959.706 166.608 959.425 167.362 958.511 167.92C957.597 168.479 957.63 168.383 956.72 168.824C955.81 169.264 955.386 169.545 955.011 170.063C954.461 170.823 954.432 170.79 954.29 171.491C954.147 172.193 954.05 173.309 953.973 173.836C953.896 174.363 955.276 177.765 955.483 178.714C955.649 179.473 956.074 180.107 956.266 180.329C957.201 181.518 959.119 183.957 959.302 184.198C959.531 184.5 961.011 186.699 961.425 186.83C961.839 186.962 964.905 188.284 965.434 188.537C965.963 188.79 966.839 189.104 966.83 189.398C966.82 189.692 966.116 191.195 965.804 191.597C965.492 191.998 963.656 193.35 963.173 193.511C962.69 193.672 961.166 195.461 960.374 195.906C959.742 196.262 958.94 198.12 958.691 199.014C958.41 199.785 968.06 209.175 968.341 209.373C968.691 209.62 968.56 211.117 968.537 211.822C968.513 212.528 968.773 213.714 969.161 214.61C969.549 215.506 970.297 216.93 971.24 217.314C972.183 217.699 970.619 219.223 970.422 219.746C970.226 220.27 970.003 222.446 969.934 223.343C969.826 224.767 969.886 226.939 969.975 227.884C970.045 228.64 971.282 231.656 971.892 233.07C972.712 234.176 973.983 236.503 974.461 236.913C974.723 237.139 978.224 239.224 978.506 239.992C978.806 240.811 978.848 241.734 978.045 242.77C977.498 243.477 976.943 246.425 976.077 247.339C975.21 248.252 973.634 248.965 972.714 249.7C971.794 250.435 970.144 253.383 969.516 254.304C968.888 255.225 969.673 255.921 970.348 257.18C971.023 258.439 972.364 259.372 972.241 260.309C972.131 261.145 970.289 263.396 969.594 264.551C968.899 265.705 968.237 265.86 967.677 266.548C967.117 267.236 968.022 268.738 968.528 269.696C969.033 270.655 969.835 271.561 970.79 271.616C972.048 271.688 976.39 268.64 976.86 268.612C977.33 268.583 973.405 272.202 973.315 272.385C973.163 272.694 972.838 282.019 972.895 283C972.927 283.532 973.577 286.702 973.724 287.649C973.872 288.596 977.068 291.597 977.776 291.856C978.343 292.063 984.053 292.291 984.402 292.187C984.752 292.082 984.076 296.235 983.485 296.781C982.746 297.463 980.336 298.937 980.072 299.693C979.808 300.45 981.409 302.617 981.264 303.378C981.119 304.138 979.084 310.754 978.044 312.943C977.507 314.074 975.327 313.136 974.075 313.095C972.822 313.053 972.269 314.052 971.897 314.452C971.6 314.771 970.672 317.26 970.555 318.394C970.547 319.21 973.503 322.753 973.632 323.181C973.794 323.716 973.099 331.123 972.538 332.414C972.067 333.496 972.904 335.782 973 336.491C973.096 337.201 976.63 339.733 976.945 340.656C978.154 344.21 979.064 346.619 978.702 347.363C978.008 348.789 974.556 349.923 973.746 350.956C972.935 351.989 974.445 354.753 974.348 355.868C974.251 356.983 969.306 362.753 967.883 364.236C966.461 365.72 963.008 371.648 964.269 371.454C965.529 371.26 972.837 367.541 974.789 366.311C976.741 365.08 980.089 369.523 981.133 370.413C983.846 372.726 984.358 375.429 984.82 375.916C985.281 376.402 986.494 377.521 988.485 378.706C990.475 379.89 992.048 381.848 992.206 382.498C992.571 383.997 993.563 385.857 993.226 387.023C992.889 388.189 990.602 388.746 990.236 388.97C989.871 389.193 989.299 392.807 988.136 394.637C986.883 396.607 983.625 399.323 982.26 400.868C980.895 402.412 984.682 407.206 984.668 407.618C984.654 408.03 988.289 409.827 988.643 409.956C988.926 410.06 988.435 610.343 987.987 610.507C987.54 610.672 907.951 607.816 907.951 607.816L837.326 609.447L811.504 612.746L729.024 613.892Z" stroke="#AEAEAE" stroke-width="5" shape-rendering="crispEdges"/>
</g>
</g>
<defs>
<filter id="filter0_d_193_1004" x="5.9751" y="2.75562" width="296.497" height="687.271" filterUnits="userSpaceOnUse" color-interpolation-filters="sRGB">
<feFlood flood-opacity="0" result="BackgroundImageFix"/>
<feColorMatrix in="SourceAlpha" type="matrix" values="0 0 0 0 0 0 0 0 0 0 0 0 0 0 0 0 0 0 127 0" result="hardAlpha"/>
<feOffset dy="4"/>
<feGaussianBlur stdDeviation="2"/>
<feComposite in2="hardAlpha" operator="out"/>
<feColorMatrix type="matrix" values="0 0 0 0 0 0 0 0 0 0 0 0 0 0 0 0 0 0 0.25 0"/>
<feBlend mode="normal" in2="BackgroundImageFix" result="effect1_dropShadow_193_1004"/>
<feBlend mode="normal" in="SourceGraphic" in2="effect1_dropShadow_193_1004" result="shape"/>
</filter>
<filter id="filter1_d_193_1004" x="293.467" y="0.520264" width="317.222" height="688.596" filterUnits="userSpaceOnUse" color-interpolation-filters="sRGB">
<feFlood flood-opacity="0" result="BackgroundImageFix"/>
<feColorMatrix in="SourceAlpha" type="matrix" values="0 0 0 0 0 0 0 0 0 0 0 0 0 0 0 0 0 0 127 0" result="hardAlpha"/>
<feOffset dx="3" dy="4"/>
<feGaussianBlur stdDeviation="2"/>
<feComposite in2="hardAlpha" operator="out"/>
<feColorMatrix type="matrix" values="0 0 0 0 0 0 0 0 0 0 0 0 0 0 0 0 0 0 0.25 0"/>
<feBlend mode="normal" in2="BackgroundImageFix" result="effect1_dropShadow_193_1004"/>
<feBlend mode="normal" in="SourceGraphic" in2="effect1_dropShadow_193_1004" result="shape"/>
</filter>
<filter id="filter2_d_193_1004" x="599.133" y="34.636" width="404.66" height="589.756" filterUnits="userSpaceOnUse" color-interpolation-filters="sRGB">
<feFlood flood-opacity="0" result="BackgroundImageFix"/>
<feColorMatrix in="SourceAlpha" type="matrix" values="0 0 0 0 0 0 0 0 0 0 0 0 0 0 0 0 0 0 127 0" result="hardAlpha"/>
<feOffset dx="4" dy="4"/>
<feGaussianBlur stdDeviation="2"/>
<feComposite in2="hardAlpha" operator="out"/>
<feColorMatrix type="matrix" values="0 0 0 0 0 0 0 0 0 0 0 0 0 0 0 0 0 0 0.25 0"/>
<feBlend mode="normal" in2="BackgroundImageFix" result="effect1_dropShadow_193_1004"/>
<feBlend mode="normal" in="SourceGraphic" in2="effect1_dropShadow_193_1004" result="shape"/>
</filter>
</defs>
</svg>
